<?xml version="1.0" encoding="UTF-8"?>
<!DOCTYPE svg PUBLIC "-//W3C//DTD SVG 1.1//EN" "http://www.w3.org/Graphics/SVG/1.1/DTD/svg11.dtd">
<svg xmlns="http://www.w3.org/2000/svg" version="1.1" width="130px" height="130px" style="shape-rendering:geometricPrecision; text-rendering:geometricPrecision; image-rendering:optimizeQuality; fill-rule:evenodd; clip-rule:evenodd" xmlns:xlink="http://www.w3.org/1999/xlink">
<g><path style="opacity:1" fill="#fefdfd" d="M -0.5,-0.5 C 42.8333,-0.5 86.1667,-0.5 129.5,-0.5C 129.5,42.8333 129.5,86.1667 129.5,129.5C 86.1667,129.5 42.8333,129.5 -0.5,129.5C -0.5,86.1667 -0.5,42.8333 -0.5,-0.5 Z"/></g>
<g><path style="opacity:1" fill="#dd2595" d="M 60.5,7.5 C 69.1907,6.23842 73.3574,9.90509 73,18.5C 70.5976,24.092 66.4309,25.9253 60.5,24C 53.9022,18.4635 53.9022,12.9635 60.5,7.5 Z"/></g>
<g><path style="opacity:1" fill="#dd2795" d="M 47.5,20.5 C 52.4194,23.7483 56.7528,27.7483 60.5,32.5C 56.8333,36.8333 52.8333,40.8333 48.5,44.5C 44.1667,40.8333 40.1667,36.8333 36.5,32.5C 40.1886,28.4799 43.8553,24.4799 47.5,20.5 Z"/></g>
<g><path style="opacity:1" fill="#dd2495" d="M 80.5,19.5 C 84.4643,22.9629 88.2977,26.6295 92,30.5C 92.6667,31.5 92.6667,32.5 92,33.5C 82.9858,42.6811 73.8192,51.6811 64.5,60.5C 60.1667,56.8333 56.1667,52.8333 52.5,48.5C 61.8547,38.8127 71.188,29.146 80.5,19.5 Z"/></g>
<g><path style="opacity:1" fill="#5f3a9f" d="M 95.5,36.5 C 96.552,36.3505 97.552,36.5172 98.5,37C 101.951,40.7398 105.285,44.5732 108.5,48.5C 104.849,52.6516 101.016,56.6516 97,60.5C 92.8333,56.3333 88.6667,52.1667 84.5,48C 88.3705,44.2977 92.0371,40.4643 95.5,36.5 Z"/></g>
<g><path style="opacity:1" fill="#fb7452" d="M 31.5,36.5 C 41.7595,45.0906 51.4261,54.4239 60.5,64.5C 56.8333,68.8333 52.8333,72.8333 48.5,76.5C 38.8333,67.5 29.5,58.1667 20.5,48.5C 24.1886,44.4799 27.8553,40.4799 31.5,36.5 Z"/></g>
<g><path style="opacity:1" fill="#603a9f" d="M 79.5,52.5 C 89.7595,61.0906 99.4261,70.4239 108.5,80.5C 104.833,84.8333 100.833,88.8333 96.5,92.5C 86.8333,83.5 77.5,74.1667 68.5,64.5C 72.1886,60.4799 75.8553,56.4799 79.5,52.5 Z"/></g>
<g><path style="opacity:1" fill="#603a9f" d="M 110.5,55.5 C 118.523,55.683 122.023,59.683 121,67.5C 115.667,75.5 110.333,75.5 105,67.5C 104.333,65.1667 104.333,62.8333 105,60.5C 106.73,58.5981 108.563,56.9314 110.5,55.5 Z"/></g>
<g><path style="opacity:1" fill="#fb7553" d="M 13.5,55.5 C 22.0344,55.861 25.5344,60.1943 24,68.5C 18.1709,75.4761 12.8376,75.1428 8,67.5C 6.87349,62.0891 8.70682,58.0891 13.5,55.5 Z"/></g>
<g><path style="opacity:1" fill="#fb7350" d="M 31.5,68.5 C 35.9645,72.4632 40.2978,76.6298 44.5,81C 40.6516,85.0156 36.6516,88.8489 32.5,92.5C 28.1667,88.8333 24.1667,84.8333 20.5,80.5C 24.1886,76.4799 27.8553,72.4799 31.5,68.5 Z"/></g>
<g><path style="opacity:1" fill="#e1517d" d="M 63.5,68.5 C 68.4194,71.7483 72.7528,75.7483 76.5,80.5C 67.5,90.1667 58.1667,99.5 48.5,108.5C 44.1667,104.833 40.1667,100.833 36.5,96.5C 45.5214,87.146 54.5214,77.8127 63.5,68.5 Z"/></g>
<g><path style="opacity:1" fill="#e1527d" d="M 79.5,84.5 C 84.4194,87.7483 88.7528,91.7483 92.5,96.5C 88.8333,100.833 84.8333,104.833 80.5,108.5C 76.3484,104.849 72.3484,101.016 68.5,97C 72.0566,92.708 75.7232,88.5413 79.5,84.5 Z"/></g>
<g><path style="opacity:1" fill="#e1527d" d="M 60.5,104.5 C 69.0047,103.514 73.1714,107.18 73,115.5C 68.3923,122.54 63.059,123.207 57,117.5C 55.627,115.305 55.2937,112.971 56,110.5C 57.332,108.34 58.832,106.34 60.5,104.5 Z"/></g>
</svg>
